<svg width="280" height="208" viewBox="0 0 280 208" fill="none" xmlns="http://www.w3.org/2000/svg">
<path d="M65.7418 9.10289C69.6594 3.40445 76.1314 0 83.0466 0H280V208H83.0466C76.1314 208 69.6594 204.596 65.7418 198.897L0.5 104L65.7418 9.10289Z" fill="#002F6C"/>
<path d="M145.977 124.909V122.352C145.977 116.493 146.439 111.823 147.362 108.343C148.286 104.863 149.653 102.075 151.464 99.9801C153.275 97.8494 155.494 95.9318 158.122 94.2273C160.395 92.7358 162.419 91.2976 164.195 89.9126C166.006 88.5277 167.426 87.054 168.456 85.4915C169.521 83.929 170.054 82.1534 170.054 80.1648C170.054 78.3892 169.628 76.8267 168.776 75.4773C167.923 74.1278 166.769 73.0803 165.313 72.3345C163.857 71.5888 162.241 71.2159 160.466 71.2159C158.548 71.2159 156.773 71.6598 155.139 72.5476C153.541 73.4354 152.245 74.6605 151.251 76.223C150.292 77.7855 149.812 79.5966 149.812 81.6562H122.54C122.611 73.8438 124.386 67.505 127.866 62.6399C131.347 57.7393 135.963 54.1527 141.716 51.88C147.469 49.5717 153.79 48.4176 160.679 48.4176C168.278 48.4176 175.061 49.5362 181.027 51.7734C186.993 53.9751 191.698 57.3132 195.143 61.7876C198.587 66.2266 200.31 71.7841 200.31 78.4602C200.31 82.7571 199.564 86.5391 198.072 89.8061C196.616 93.0376 194.575 95.8963 191.947 98.3821C189.354 100.832 186.318 103.07 182.838 105.094C180.281 106.585 178.133 108.13 176.393 109.728C174.653 111.29 173.339 113.084 172.451 115.108C171.563 117.097 171.119 119.511 171.119 122.352V124.909H145.977ZM158.974 160.705C154.855 160.705 151.322 159.266 148.374 156.39C145.462 153.478 144.024 149.945 144.06 145.79C144.024 141.741 145.462 138.279 148.374 135.403C151.322 132.526 154.855 131.088 158.974 131.088C162.881 131.088 166.325 132.526 169.308 135.403C172.327 138.279 173.854 141.741 173.889 145.79C173.854 148.56 173.126 151.081 171.705 153.354C170.32 155.591 168.509 157.384 166.272 158.734C164.035 160.048 161.602 160.705 158.974 160.705Z" fill="white"/>
</svg>
